<svg width="28" height="28" viewBox="0 0 28 28" fill="none" xmlns="http://www.w3.org/2000/svg">
<path d="M11.5082 4.50778C9.94024 5.20778 4.95624 10.1638 4.36824 11.6198C3.80824 12.9638 3.80824 15.0358 4.36824 16.4078C5.04024 18.0318 10.4722 23.2958 11.9282 23.7438C14.4762 24.4998 16.7162 23.8838 18.4802 22.0078C19.7402 20.6358 20.3842 20.0198 21.9242 18.5358C24.7802 15.8478 24.6962 11.9838 21.7562 9.29578C20.1882 7.83978 19.6002 7.25178 18.4802 6.01978C16.6322 3.97578 13.9442 3.38778 11.5082 4.50778ZM17.3602 7.05578C19.7122 7.72778 20.0482 8.00778 20.6922 9.93978C21.4762 12.3758 21.5042 15.6238 20.6922 18.0038C20.3842 18.9558 19.9362 19.9078 19.6842 20.0758C17.9202 21.4198 12.5162 21.7838 9.68824 20.7198C8.17624 20.1318 8.00824 19.9918 7.33624 18.5078C6.35624 16.3238 6.30024 12.1518 7.25224 9.68778C7.84024 8.23178 8.03624 8.00778 9.21224 7.47578C11.4242 6.49578 14.8122 6.32778 17.3602 7.05578Z" fill="black" fill-opacity="0.6"/>
</svg>
