<svg width="14" height="13" viewBox="0 0 14 13" fill="none" xmlns="http://www.w3.org/2000/svg">
<path d="M10.2082 11.0832H12.8332M12.8332 11.0832L11.3748 9.62484M12.8332 11.0832L11.3748 12.5415M6.99984 1.1665L5.5415 2.62484L6.99984 4.08317" stroke="black" stroke-width="0.5" stroke-linecap="round" stroke-linejoin="round"/>
<path d="M6.12484 2.625C7.28516 2.625 8.39796 3.08594 9.21843 3.90641C10.0389 4.72688 10.4998 5.83968 10.4998 7C10.4998 8.16032 10.0389 9.27312 9.21843 10.0936C8.39796 10.9141 7.28516 11.375 6.12484 11.375H1.1665" stroke="black" stroke-width="0.5" stroke-linecap="round" stroke-linejoin="round"/>
<path d="M3.941 3.20801C3.27473 3.59165 2.72138 4.14416 2.33672 4.80984C1.95206 5.47552 1.74968 6.23085 1.75 6.99967C1.75 7.98434 2.0755 8.89317 2.625 9.62467" stroke="black" stroke-width="0.5" stroke-linecap="round" stroke-linejoin="round"/>
</svg>
