<svg width="14" height="14" viewBox="0 0 14 14" fill="none" xmlns="http://www.w3.org/2000/svg">
<path d="M1 6.8C0.889543 6.8 0.8 6.88954 0.8 7C0.8 7.11046 0.889543 7.2 1 7.2V6.8ZM12 7.2L14 8.1547V5.8453L12 6.8V7.2ZM1 7.2H12.2V6.8H1V7.2Z" fill="#3C3C3C" fill-opacity="0.8"/>
<path d="M7.7 0.5C7.7 0.389543 7.61046 0.3 7.5 0.3C7.38954 0.3 7.3 0.389543 7.3 0.5L7.7 0.5ZM7.3 11.5L6.3453 13.5L8.6547 13.5L7.7 11.5L7.3 11.5ZM7.3 0.5L7.3 11.7L7.7 11.7L7.7 0.5L7.3 0.5Z" fill="#3C3C3C" fill-opacity="0.8"/>
</svg>
